<svg width="16" height="16" viewBox="0 0 16 16" fill="none" xmlns="http://www.w3.org/2000/svg">
<path d="M3.95644 12.9984C3.70908 13.0128 3.46581 12.9302 3.27793 12.7679C2.9074 12.3932 2.9074 11.7882 3.27793 11.4136L11.3914 3.25918C11.7768 2.89674 12.3815 2.91688 12.7422 3.30422C13.0683 3.65448 13.0873 4.19284 12.7867 4.56543L4.62537 12.7679C4.43992 12.9278 4.20055 13.0103 3.95644 12.9984Z" fill="#DA6B50"/>
<path d="M11.9754 12.9948C11.7258 12.9938 11.4865 12.894 11.3092 12.7169L3.22888 4.58153C2.88701 4.17957 2.93349 3.57466 3.33272 3.23042C3.68904 2.92319 4.21455 2.92319 4.57084 3.23042L12.6987 11.3658C13.0825 11.7275 13.1023 12.3339 12.7431 12.7202C12.7288 12.7356 12.714 12.7505 12.6987 12.7649C12.4997 12.9391 12.2378 13.0224 11.9754 12.9948Z" fill="#DA6B50"/>
</svg>
