<svg preserveAspectRatio="none" width="100%" height="100%" overflow="visible" style="display: block;" viewBox="0 0 24 24" fill="none" xmlns="http://www.w3.org/2000/svg">
<g id="Frame 29">
<rect width="24" height="24" rx="12" fill="var(--fill-0, black)" fill-opacity="0.32"/>
<path id="Vector" d="M10.0047 15.5923C10.2499 15.6968 10.5128 15.7504 10.7781 15.75C11.0418 15.751 11.303 15.6983 11.5467 15.5948C11.7905 15.4913 12.012 15.3391 12.1984 15.147L16.8756 10.3997C16.9917 10.2854 17.0846 10.1484 17.1489 9.99674C17.2131 9.84507 17.2475 9.68174 17.2499 9.51627C17.2523 9.35079 17.2227 9.18647 17.1629 9.03288C17.1031 8.87929 17.0142 8.73951 16.9015 8.62166C16.7888 8.50381 16.6544 8.41026 16.5062 8.34645C16.3581 8.28264 16.1991 8.24986 16.0385 8.25C15.8779 8.25014 15.719 8.28321 15.5709 8.34728C15.4229 8.41136 15.2887 8.50515 15.1761 8.6232L10.7781 13.0886L8.7962 11.1116C8.56514 10.8843 8.25629 10.7604 7.93694 10.7668C7.61759 10.7732 7.31364 10.9094 7.09132 11.1458C6.86901 11.3821 6.74635 11.6995 6.75008 12.0287C6.75381 12.3578 6.88363 12.6721 7.11125 12.9031L9.34898 15.1412C9.53664 15.3345 9.75947 15.4878 10.0047 15.5923Z" fill="var(--fill-0, white)"/>
</g>
</svg>
