<svg width="16" height="16" viewBox="0 0 16 16" fill="none" xmlns="http://www.w3.org/2000/svg">
<g clip-path="url(#clip0_77_34)">
<path d="M7.33333 9.33325H3.33333C2.4496 9.33431 1.60237 9.68584 0.97748 10.3107C0.352588 10.9356 0.00105857 11.7829 0 12.6666L0 15.9999H2V12.6666C2 12.313 2.14048 11.9738 2.39052 11.7238C2.64057 11.4737 2.97971 11.3333 3.33333 11.3333H7.33333C7.68696 11.3333 8.02609 11.4737 8.27614 11.7238C8.52619 11.9738 8.66667 12.313 8.66667 12.6666V15.9999H10.6667V12.6666C10.6656 11.7829 10.3141 10.9356 9.68919 10.3107C9.0643 9.68584 8.21706 9.33431 7.33333 9.33325Z" fill="white"/>
<path d="M5.33334 8C6.12447 8 6.89783 7.76541 7.55563 7.32588C8.21342 6.88635 8.72611 6.26164 9.02886 5.53074C9.33161 4.79983 9.41083 3.99556 9.25649 3.21964C9.10214 2.44372 8.72118 1.73098 8.16177 1.17157C7.60236 0.612165 6.88963 0.231202 6.11371 0.0768607C5.33778 -0.0774802 4.53351 0.00173314 3.80261 0.304484C3.07171 0.607234 2.44699 1.11992 2.00747 1.77772C1.56794 2.43552 1.33334 3.20888 1.33334 4C1.3344 5.06054 1.75617 6.07734 2.50609 6.82726C3.256 7.57718 4.2728 7.99894 5.33334 8ZM5.33334 2C5.72891 2 6.11559 2.1173 6.44448 2.33706C6.77338 2.55683 7.02973 2.86918 7.1811 3.23464C7.33248 3.60009 7.37209 4.00222 7.29491 4.39018C7.21774 4.77814 7.02726 5.13451 6.74756 5.41422C6.46785 5.69392 6.11149 5.8844 5.72352 5.96157C5.33556 6.03874 4.93343 5.99914 4.56798 5.84776C4.20252 5.69639 3.89017 5.44004 3.6704 5.11114C3.45064 4.78224 3.33334 4.39556 3.33334 4C3.33334 3.46957 3.54406 2.96086 3.91913 2.58579C4.2942 2.21072 4.80291 2 5.33334 2Z" fill="white"/>
<path d="M14 6.66675V4.66675H12V6.66675H10V8.66675H12V10.6667H14V8.66675H16V6.66675H14Z" fill="white"/>
</g>
<defs>
<clipPath id="clip0_77_34">
<rect width="16" height="16" fill="white"/>
</clipPath>
</defs>
</svg>
