<svg preserveAspectRatio="none" width="100%" height="100%" overflow="visible" style="display: block;" viewBox="0 0 16 16" fill="none" xmlns="http://www.w3.org/2000/svg">
<g id="copy 1">
<path id="Vector" d="M11.3333 0H3.33333C2.97971 0 2.65057 0.140476 2.41052 0.390524C2.17048 0.640573 2.03333 0.979711 2.03333 1.33333V10.6667H3.43333V1.4H11.3333V0Z" fill="#FFFFFF"/>
<path id="Vector_2" d="M13.3333 2.66667H6C5.64638 2.66667 5.31724 2.80714 5.07719 3.05719C4.83715 3.30724 4.7 3.64638 4.7 4V14C4.7 14.3536 4.83715 14.6928 5.07719 14.9428C5.31724 15.1929 5.64638 15.3333 6 15.3333H13.3333C13.687 15.3333 14.0161 15.1929 14.2561 14.9428C14.4962 14.6928 14.6333 14.3536 14.6333 14V4C14.6333 3.64638 14.4962 3.30724 14.2561 3.05719C14.0161 2.80714 13.687 2.66667 13.3333 2.66667ZM13.3333 14H6V4H13.3333V14Z" fill="#FFFFFF"/>
</g>
</svg>
