<svg preserveAspectRatio="none" width="100%" height="100%" overflow="visible" style="display: block;" viewBox="0 0 24 24" fill="none" xmlns="http://www.w3.org/2000/svg">
<g id="highlighter-line 1" clip-path="url(#clip0_0_12)">
<path id="Vector" d="M8.02 19C9.8 19 11.5 18.24 12.72 16.87L19.82 8.35C21.47 6.45 21.37 3.56 19.59 1.77L19.22 1.4C17.44 -0.380001 14.55 -0.480001 12.67 1.15L4.09 8.31C2.76 9.49 2 11.19 2 12.97V16.87L0.439999 18.43C-0.150001 19.02 -0.150001 19.97 0.439999 20.55C0.729999 20.84 1.12 20.99 1.5 20.99C1.88 20.99 2.27 20.84 2.56 20.55L4.12 18.99H8.02V19ZM6.05 10.59L14.61 3.45C15.33 2.83 16.42 2.86 17.1 3.54L17.47 3.91C18.14 4.58 18.18 5.68 17.54 6.42L10.45 14.92C10.22 15.17 9.96 15.39 9.67 15.56L5.45 11.34C5.61 11.06 5.82 10.81 6.05 10.6V10.59ZM24 22.5C24 23.33 23.33 24 22.5 24H5.5C4.67 24 4 23.33 4 22.5C4 21.67 4.67 21 5.5 21H22.5C23.33 21 24 21.67 24 22.5Z" fill="var(--fill-0, #F4DB50)"/>
</g>
<defs>
<clipPath id="clip0_0_12">
<rect width="24" height="24" fill="white"/>
</clipPath>
</defs>
</svg>
