<svg preserveAspectRatio="none" width="100%" height="100%" overflow="visible" style="display: block;" viewBox="0 0 16 16" fill="none" xmlns="http://www.w3.org/2000/svg">
<g id="highlighter-line 1" clip-path="url(#clip0_0_16)">
<path id="Vector" d="M5.34671 12.6667C6.53337 12.6667 7.66671 12.16 8.48004 11.2467L13.2134 5.56669C14.3134 4.30003 14.2467 2.37336 13.06 1.18002L12.8134 0.933358C11.6267 -0.253309 9.70004 -0.319975 8.44671 0.766691L2.72671 5.54003C1.84004 6.32669 1.33337 7.46003 1.33337 8.64669V11.2467L0.293372 12.2867C-0.0999609 12.68 -0.0999609 13.3134 0.293372 13.7C0.486706 13.8934 0.746706 13.9934 1.00004 13.9934C1.25337 13.9934 1.51337 13.8934 1.70671 13.7L2.74671 12.66H5.34671V12.6667ZM4.03337 7.06003L9.74004 2.30002C10.22 1.88669 10.9467 1.90669 11.4 2.36002L11.6467 2.60669C12.0934 3.05336 12.12 3.78669 11.6934 4.28003L6.96671 9.94669C6.81337 10.1134 6.64004 10.26 6.44671 10.3734L3.63337 7.56003C3.74004 7.37336 3.88004 7.20669 4.03337 7.06669V7.06003ZM16 15C16 15.5534 15.5534 16 15 16H3.66671C3.11337 16 2.66671 15.5534 2.66671 15C2.66671 14.4467 3.11337 14 3.66671 14H15C15.5534 14 16 14.4467 16 15Z" fill="var(--fill-0, #F4DB50)"/>
</g>
<defs>
<clipPath id="clip0_0_16">
<rect width="16" height="16" fill="white"/>
</clipPath>
</defs>
</svg>
