<svg width="16" height="16" viewBox="0 0 16 16" fill="none" xmlns="http://www.w3.org/2000/svg">
<g clip-path="url(#clip0_82_250)">
<path d="M8 10.6667C8.73667 10.6667 9.33333 11.2633 9.33333 12C9.33333 12.7367 8.73667 13.3333 8 13.3333C7.26333 13.3333 6.66667 12.7367 6.66667 12C6.66667 11.2633 7.26333 10.6667 8 10.6667ZM3.33333 7.33333C3.33333 8.42067 4 10 5.33333 10C6.66667 10 7.33333 8.42067 7.33333 7.33333C7.33333 7.33333 6 8 5.33333 8C4.66667 8 3.33333 7.33333 3.33333 7.33333ZM8.66667 7.33333C8.66667 8.42067 9.33333 10 10.6667 10C12 10 12.6667 8.42067 12.6667 7.33333C12.6667 7.33333 11.3333 8 10.6667 8C10 8 8.66667 7.33333 8.66667 7.33333ZM13.3667 5.33333C13.768 6.138 14 7.04133 14 8C14 11.308 11.3087 14 8 14C4.69133 14 2 11.308 2 8C2 5.15067 3.99867 2.76333 6.66667 2.15467V0.120667C2.88933 0.758 0 4.044 0 8C0 12.4113 3.58867 16 8 16C12.4113 16 16 12.4113 16 8C16 7.064 15.83 6.16867 15.5333 5.33333H13.3667ZM16 0H12.6667V1.33333H14.0573L12.6667 2.724V4H16V2.66667H14.6093L16 1.276V0ZM11.3333 4H9.94267L11.3333 2.60933V1.33333H8V2.66667H9.39067L8 4.05733V5.33333H11.3333V4Z" fill="#E5B93F"/>
</g>
<defs>
<clipPath id="clip0_82_250">
<rect width="16" height="16" fill="white"/>
</clipPath>
</defs>
</svg>
