<svg preserveAspectRatio="none" width="100%" height="100%" overflow="visible" style="display: block;" viewBox="0 0 16 16" fill="none" xmlns="http://www.w3.org/2000/svg">
<g id="list 1">
<path id="Vector" d="M5.33333 4.66666H15C15.2652 4.66666 15.5196 4.56131 15.7071 4.37377C15.8946 4.18623 16 3.93188 16 3.66666C16 3.40145 15.8946 3.14709 15.7071 2.95956C15.5196 2.77202 15.2652 2.66666 15 2.66666H5.33333C5.06812 2.66666 4.81376 2.77202 4.62623 2.95956C4.43869 3.14709 4.33333 3.40145 4.33333 3.66666C4.33333 3.93188 4.43869 4.18623 4.62623 4.37377C4.81376 4.56131 5.06812 4.66666 5.33333 4.66666Z" fill="var(--fill-0, #F4DB50)"/>
<path id="Vector_2" d="M15 7.33334H5.33333C5.06812 7.33334 4.81376 7.43869 4.62623 7.62623C4.43869 7.81377 4.33333 8.06812 4.33333 8.33334C4.33333 8.59855 4.43869 8.85291 4.62623 9.04044C4.81376 9.22798 5.06812 9.33334 5.33333 9.33334H15C15.2652 9.33334 15.5196 9.22798 15.7071 9.04044C15.8946 8.85291 16 8.59855 16 8.33334C16 8.06812 15.8946 7.81377 15.7071 7.62623C15.5196 7.43869 15.2652 7.33334 15 7.33334Z" fill="var(--fill-0, #F4DB50)"/>
<path id="Vector_3" d="M15 12H5.33333C5.06812 12 4.81376 12.1054 4.62623 12.2929C4.43869 12.4804 4.33333 12.7348 4.33333 13C4.33333 13.2652 4.43869 13.5196 4.62623 13.7071C4.81376 13.8946 5.06812 14 5.33333 14H15C15.2652 14 15.5196 13.8946 15.7071 13.7071C15.8946 13.5196 16 13.2652 16 13C16 12.7348 15.8946 12.4804 15.7071 12.2929C15.5196 12.1054 15.2652 12 15 12Z" fill="var(--fill-0, #F4DB50)"/>
<path id="Vector_4" d="M1.66667 5.33333C2.58714 5.33333 3.33333 4.58714 3.33333 3.66667C3.33333 2.74619 2.58714 2 1.66667 2C0.746192 2 0 2.74619 0 3.66667C0 4.58714 0.746192 5.33333 1.66667 5.33333Z" fill="var(--fill-0, #F4DB50)"/>
<path id="Vector_5" d="M1.66667 9.66667C2.58714 9.66667 3.33333 8.92048 3.33333 8C3.33333 7.07953 2.58714 6.33334 1.66667 6.33334C0.746192 6.33334 0 7.07953 0 8C0 8.92048 0.746192 9.66667 1.66667 9.66667Z" fill="var(--fill-0, #F4DB50)"/>
<path id="Vector_6" d="M1.66667 14.3333C2.58714 14.3333 3.33333 13.5871 3.33333 12.6667C3.33333 11.7462 2.58714 11 1.66667 11C0.746192 11 0 11.7462 0 12.6667C0 13.5871 0.746192 14.3333 1.66667 14.3333Z" fill="var(--fill-0, #F4DB50)"/>
</g>
</svg>
