<svg preserveAspectRatio="none" width="100%" height="100%" overflow="visible" style="display: block;" viewBox="0 0 16 16" fill="none" xmlns="http://www.w3.org/2000/svg">
<g id="marker 1">
<path id="Vector" d="M8 0C6.14419 0.00229341 4.36504 0.740528 3.05279 2.05279C1.74053 3.36504 1.00229 5.14419 1 7C1 8.884 2.46667 11.5107 5.36067 14.806C5.6907 15.181 6.09684 15.4814 6.55205 15.6872C7.00727 15.893 7.5011 15.9994 8.00067 15.9994C8.50023 15.9994 8.99407 15.893 9.44928 15.6872C9.90449 15.4814 10.3106 15.181 10.6407 14.806C13.5333 11.5113 15 8.88467 15 7C14.9977 5.14419 14.2595 3.36504 12.9472 2.05279C11.635 0.740528 9.85581 0.00229341 8 0ZM9.13733 13.4873C8.99196 13.6436 8.81594 13.7682 8.62026 13.8535C8.42458 13.9387 8.21344 13.9827 8 13.9827C7.78656 13.9827 7.57542 13.9387 7.37974 13.8535C7.18406 13.7682 7.00804 13.6436 6.86267 13.4873C4.40733 10.6907 2.996 8.326 2.996 7.00067C2.996 5.67458 3.52278 4.40281 4.46047 3.46513C5.39815 2.52745 6.66992 2.00067 7.996 2.00067C9.32208 2.00067 10.5939 2.52745 11.5315 3.46513C12.4692 4.40281 12.996 5.67458 12.996 7.00067C13 8.326 11.5927 10.6907 9.13733 13.4873Z" fill="var(--fill-0, #F4DB50)"/>
<path id="Vector_2" d="M8 4.03667C7.42472 4.03667 6.86236 4.20726 6.38403 4.52687C5.9057 4.84647 5.53289 5.30075 5.31274 5.83224C5.09259 6.36372 5.03499 6.94856 5.14722 7.51279C5.25945 8.07701 5.53648 8.59529 5.94326 9.00207C6.35005 9.40886 6.86832 9.68588 7.43255 9.79811C7.99677 9.91034 8.58161 9.85274 9.1131 9.63259C9.64459 9.41244 10.0989 9.03963 10.4185 8.5613C10.7381 8.08297 10.9087 7.52061 10.9087 6.94533C10.9078 6.17418 10.6011 5.43486 10.0558 4.88957C9.51047 4.34428 8.77116 4.03755 8 4.03667ZM8 7.854C7.82028 7.854 7.6446 7.80071 7.49517 7.70086C7.34574 7.60102 7.22928 7.4591 7.1605 7.29307C7.09173 7.12703 7.07373 6.94433 7.10879 6.76806C7.14385 6.5918 7.2304 6.42989 7.35748 6.30281C7.48455 6.17573 7.64646 6.08919 7.82273 6.05413C7.99899 6.01907 8.18169 6.03706 8.34773 6.10584C8.51377 6.17461 8.65568 6.29108 8.75553 6.44051C8.85537 6.58994 8.90867 6.76562 8.90867 6.94533C8.90849 7.18627 8.8127 7.41729 8.64233 7.58766C8.47196 7.75803 8.24094 7.85382 8 7.854Z" fill="var(--fill-0, #F4DB50)"/>
</g>
</svg>
