<svg preserveAspectRatio="none" width="100%" height="100%" overflow="visible" style="display: block;" viewBox="0 0 24 24" fill="none" xmlns="http://www.w3.org/2000/svg">
<g id="marker 1">
<path id="Vector" d="M12 0C9.21628 0.00344012 6.54757 1.11079 4.57918 3.07918C2.61079 5.04757 1.50344 7.71628 1.5 10.5C1.5 13.326 3.7 17.266 8.041 22.209C8.53604 22.7715 9.14526 23.2222 9.82808 23.5308C10.5109 23.8395 11.2517 23.9992 12.001 23.9992C12.7503 23.9992 13.4911 23.8395 14.1739 23.5308C14.8567 23.2222 15.466 22.7715 15.961 22.209C20.3 17.267 22.5 13.327 22.5 10.5C22.4966 7.71628 21.3892 5.04757 19.4208 3.07918C17.4524 1.11079 14.7837 0.00344012 12 0ZM13.706 20.231C13.4879 20.4654 13.2239 20.6524 12.9304 20.7802C12.6369 20.9081 12.3202 20.974 12 20.974C11.6798 20.974 11.3631 20.9081 11.0696 20.7802C10.7761 20.6524 10.5121 20.4654 10.294 20.231C6.611 16.036 4.494 12.489 4.494 10.501C4.494 8.51188 5.28418 6.60422 6.6907 5.1977C8.09722 3.79118 10.0049 3.001 11.994 3.001C13.9831 3.001 15.8908 3.79118 17.2973 5.1977C18.7038 6.60422 19.494 8.51188 19.494 10.501C19.5 12.489 17.389 16.036 13.706 20.231Z" fill="var(--fill-0, #202427)"/>
<path id="Vector_2" d="M12 6.055C11.1371 6.055 10.2935 6.31088 9.57605 6.7903C8.85855 7.26971 8.29934 7.95112 7.96911 8.74835C7.63889 9.54559 7.55249 10.4228 7.72083 11.2692C7.88918 12.1155 8.30472 12.8929 8.91489 13.5031C9.52507 14.1133 10.3025 14.5288 11.1488 14.6972C11.9952 14.8655 12.8724 14.7791 13.6696 14.4489C14.4669 14.1187 15.1483 13.5594 15.6277 12.842C16.1071 12.1245 16.363 11.2809 16.363 10.418C16.3617 9.26127 15.9016 8.15229 15.0836 7.33435C14.2657 6.51642 13.1567 6.05632 12 6.055ZM12 11.781C11.7304 11.781 11.4669 11.7011 11.2428 11.5513C11.0186 11.4015 10.8439 11.1887 10.7408 10.9396C10.6376 10.6905 10.6106 10.4165 10.6632 10.1521C10.7158 9.8877 10.8456 9.64483 11.0362 9.45421C11.2268 9.26359 11.4697 9.13378 11.7341 9.08119C11.9985 9.0286 12.2725 9.05559 12.5216 9.15875C12.7707 9.26191 12.9835 9.43661 13.1333 9.66076C13.2831 9.8849 13.363 10.1484 13.363 10.418C13.3627 10.7794 13.219 11.1259 12.9635 11.3815C12.7079 11.637 12.3614 11.7807 12 11.781Z" fill="var(--fill-0, #202427)"/>
</g>
</svg>
