<svg preserveAspectRatio="none" width="100%" height="100%" overflow="visible" style="display: block;" viewBox="0 0 16 16" fill="none" xmlns="http://www.w3.org/2000/svg">
<g id="play-circle 1" clip-path="url(#clip0_0_24)">
<path id="Vector" d="M8 0C3.58867 0 0 3.58867 0 8C0 12.4113 3.58867 16 8 16C12.4113 16 16 12.4113 16 8C16 3.58867 12.4113 0 8 0ZM8 14C4.69133 14 2 11.308 2 8C2 4.692 4.69133 2 8 2C11.3087 2 14 4.692 14 8C14 11.308 11.3087 14 8 14ZM6 5L11.3333 8L6 11V5Z" fill="var(--fill-0, #F4DB50)"/>
</g>
<defs>
<clipPath id="clip0_0_24">
<rect width="16" height="16" fill="white"/>
</clipPath>
</defs>
</svg>
