<svg width="16" height="16" viewBox="0 0 16 16" fill="none" xmlns="http://www.w3.org/2000/svg">
<g clip-path="url(#clip0_77_38)">
<path d="M8.49869 0.0159779C6.44602 -0.118689 4.49202 0.575978 2.99402 1.97798C1.51469 3.36198 0.666687 5.31398 0.666687 7.33331V9.66664C0.666687 11.3446 1.79935 12.7626 3.34002 13.1966C3.44135 14.76 4.74535 16 6.33335 16H9.66669C11.2547 16 12.5587 14.76 12.66 13.1966C14.2007 12.7626 15.3334 11.3446 15.3334 9.66664V7.55664C15.3334 3.58464 12.3314 0.272645 8.49869 0.0159779ZM13.3334 9.66664C13.3334 10.586 12.5854 11.3333 11.6667 11.3333C11.114 11.3333 10.6667 11.7813 10.6667 12.3333V13C10.6667 13.5513 10.218 14 9.66669 14H6.33335C5.78202 14 5.33335 13.5513 5.33335 13V12.3333C5.33335 11.7813 4.88602 11.3333 4.33335 11.3333C3.41469 11.3333 2.66669 10.586 2.66669 9.66664V7.33331C2.66669 5.84398 3.26802 4.45998 4.36002 3.43864C5.36002 2.50331 6.63935 1.99998 7.99669 1.99998C8.11869 1.99998 8.24202 2.00398 8.36535 2.01264C11.1514 2.19798 13.3334 4.63398 13.3334 7.55664V9.66664ZM5.33335 5.99998C4.59802 5.99998 4.00002 6.59798 4.00002 7.33331C4.00002 8.06864 4.59802 8.66664 5.33335 8.66664C6.06869 8.66664 6.66669 8.06864 6.66669 7.33331C6.66669 6.59798 6.06869 5.99998 5.33335 5.99998ZM10.6667 5.99998C9.93135 5.99998 9.33335 6.59798 9.33335 7.33331C9.33335 8.06864 9.93135 8.66664 10.6667 8.66664C11.402 8.66664 12 8.06864 12 7.33331C12 6.59798 11.402 5.99998 10.6667 5.99998ZM9.33335 11.3333C9.33335 12.07 8.73669 12 8.00002 12C7.26335 12 6.66669 12.07 6.66669 11.3333C6.66669 10.5966 7.26335 9.33331 8.00002 9.33331C8.73669 9.33331 9.33335 10.5966 9.33335 11.3333Z" fill="white"/>
</g>
<defs>
<clipPath id="clip0_77_38">
<rect width="16" height="16" fill="white"/>
</clipPath>
</defs>
</svg>
