<svg preserveAspectRatio="none" width="100%" height="100%" overflow="visible" style="display: block;" viewBox="0 0 16 16" fill="none" xmlns="http://www.w3.org/2000/svg">
<g id="trash 1" clip-path="url(#clip0_0_13)">
<path id="Vector" d="M15.3333 2H12V1.66667C12 1.22464 11.8244 0.800716 11.5119 0.488155C11.1993 0.175595 10.7754 0 10.3333 0L5.66667 0C5.22464 0 4.80072 0.175595 4.48816 0.488155C4.1756 0.800716 4.00001 1.22464 4.00001 1.66667V2H0.666672V4H2.00001V14C2.00001 14.5304 2.21072 15.0391 2.58579 15.4142C2.96086 15.7893 3.46957 16 4.00001 16H12C12.5304 16 13.0391 15.7893 13.4142 15.4142C13.7893 15.0391 14 14.5304 14 14V4H15.3333V2ZM12 14H4.00001V4H12V14Z" fill="var(--fill-0, #F26F63)"/>
<path id="Vector_2" d="M7.33333 6H5.33333V12H7.33333V6Z" fill="var(--fill-0, #F26F63)"/>
<path id="Vector_3" d="M10.6667 6H8.66667V12H10.6667V6Z" fill="var(--fill-0, #F26F63)"/>
</g>
<defs>
<clipPath id="clip0_0_13">
<rect width="16" height="16" fill="white"/>
</clipPath>
</defs>
</svg>
